# xmcd CD database file
#
# Track frame offsets:
#	150
#	16678
#	37224
#	59316
#	79946
#	102292
#	126130
#	148646
#	179352
#	209301
#	219451
#	234634
#	258933
#	270155
#
# Disc length: 3849 seconds
#
# Revision: 0
# Processed by: cddbd v1.4PL0 Copyright (c) Steve Scherf et al.
# Submitted via: CDex 1.50
#
DISCID=c20f070e
DTITLE=Jack Wilkins - Heading North
DYEAR=2000
DGENRE=Jazz
TTITLE0=Relaxin' at Camarillo
TTITLE1=One Note Samba
TTITLE2=Kiwi Bird
TTITLE3=You'd be so Nice to Come Home To
TTITLE4=Some Time Ago
TTITLE5=Perdido
TTITLE6=When I Fall in Love
TTITLE7=Carninhos Cruzados
TTITLE8=Voyage
TTITLE9=There Will Never Be Another You
TTITLE10=Move
TTITLE11=Give Me The Simple Life
TTITLE12=In the Wee Small Hours
TTITLE13=Broadway
EXTD=YEAR: 2000
EXTT0=
EXTT1=
EXTT2=
EXTT3=
EXTT4=
EXTT5=
EXTT6=
EXTT7=
EXTT8=
EXTT9=
EXTT10=
EXTT11=
EXTT12=
EXTT13=
PLAYORDER=
